# Blender v2.79 (sub 0) OBJ File: ''
# www.blender.org
mtllib Reflector.mtl
o Box03_Box03.002
v -0.215266 0.404945 0.275758
v -0.258548 0.485326 0.450000
v 0.403051 -0.213372 0.275758
v 0.483432 -0.256654 0.450000
v 0.403051 -0.213372 0.275758
v 0.483432 -0.256654 0.450000
v 0.217556 -0.398867 0.275758
v 0.260838 -0.479248 0.450000
v -0.400761 0.219450 0.275758
v -0.481142 0.262732 0.450000
v -0.400761 0.219450 0.275758
v -0.481142 0.262732 0.450000
v -0.215266 0.404945 0.275758
v -0.258548 0.485326 0.450000
vt 0.282331 0.186941
vt 0.238547 0.014857
vt 0.907818 0.186941
vt 0.989131 0.014857
vt 0.088656 0.186941
vt 0.007343 0.014857
vt 0.276302 0.186941
vt 0.232518 0.014857
vt 0.901789 0.186941
vt 0.983102 0.014857
vt 0.094686 0.186941
vt 0.013372 0.014857
vt 0.714143 0.186941
vt 0.757927 0.014857
vn 0.6992 0.6992 -0.1489
vn 0.6320 -0.6320 -0.4485
vn -0.6992 -0.6992 -0.1489
vn -0.6320 0.6320 -0.4485
vn 0.0000 0.0000 -1.0000
vn 0.0000 0.0000 1.0000
usemtl None
s off
f 1/1/1 2/2/1 3/3/1
f 2/2/1 4/4/1 3/3/1
f 5/5/2 6/6/2 7/7/2
f 6/6/2 8/8/2 7/7/2
f 7/7/3 8/8/3 9/9/3
f 8/8/3 10/10/3 9/9/3
f 1/1/4 11/11/4 12/12/4
f 1/1/4 12/12/4 2/2/4
f 9/9/5 13/13/5 7/7/5
f 13/13/5 5/5/5 7/7/5
f 14/14/6 10/10/6 6/6/6
f 10/10/6 8/8/6 6/6/6
o Box02_Box02.002
v -0.174274 0.322274 -0.542424
v -0.174274 0.322274 0.275758
v 0.320380 -0.172380 -0.542424
v 0.320380 -0.172380 0.275758
v 0.320380 -0.172380 -0.542424
v 0.320380 -0.172380 0.275758
v 0.171984 -0.320776 -0.542424
v 0.171984 -0.320776 0.275758
v -0.322670 0.173878 -0.542424
v -0.322670 0.173878 0.275758
v -0.322670 0.173878 -0.542424
v -0.322670 0.173878 0.275758
v -0.174274 0.322274 -0.542424
v -0.174274 0.322274 0.275758
vt 0.323799 0.994989
vt 0.323799 0.186941
vt 0.824188 0.994989
vt 0.824188 0.186941
vt 0.172286 0.994989
vt 0.172286 0.186941
vt 0.322403 0.994989
vt 0.322403 0.186941
vt 0.822792 0.994989
vt 0.822792 0.186941
vt 0.173682 0.994989
vt 0.173682 0.186941
vt 0.672676 0.994989
vt 0.672676 0.186941
vn 0.7071 0.7071 0.0000
vn 0.7071 -0.7071 0.0000
vn -0.7071 -0.7071 0.0000
vn -0.7071 0.7071 0.0000
vn 0.0000 0.0000 -1.0000
vn 0.0000 0.0000 1.0000
usemtl None
s off
f 15/15/7 16/16/7 17/17/7
f 16/16/7 18/18/7 17/17/7
f 19/19/8 20/20/8 21/21/8
f 20/20/8 22/22/8 21/21/8
f 21/21/9 22/22/9 23/23/9
f 22/22/9 24/24/9 23/23/9
f 15/15/10 25/25/10 26/26/10
f 15/15/10 26/26/10 16/16/10
f 23/23/11 27/27/11 21/21/11
f 27/27/11 19/19/11 21/21/11
f 28/28/12 24/24/12 20/20/12
f 24/24/12 22/22/12 20/20/12
